<svg width="37" height="37" viewBox="0 0 37 37" fill="none" xmlns="http://www.w3.org/2000/svg">
<path fill-rule="evenodd" clip-rule="evenodd" d="M29.0622 9.94561C29.1941 9.81393 29.2987 9.65758 29.3701 9.48547C29.4415 9.31336 29.4783 9.12888 29.4784 8.94254C29.4785 8.75621 29.442 8.57168 29.3708 8.39949C29.2996 8.22729 29.1951 8.07081 29.0635 7.93897C28.9318 7.80713 28.7754 7.70252 28.6033 7.63111C28.4312 7.5597 28.2467 7.52288 28.0604 7.52277C27.8741 7.52265 27.6895 7.55924 27.5173 7.63044C27.3451 7.70164 27.1887 7.80606 27.0568 7.93774L18.5 16.4946L9.94556 7.93774C9.6793 7.67148 9.31817 7.5219 8.94163 7.5219C8.56508 7.5219 8.20395 7.67148 7.93769 7.93774C7.67143 8.204 7.52185 8.56512 7.52185 8.94167C7.52185 9.31822 7.67143 9.67935 7.93769 9.94561L16.4946 18.5L7.93769 27.0544C7.80585 27.1862 7.70127 27.3428 7.62992 27.515C7.55857 27.6873 7.52185 27.8719 7.52185 28.0583C7.52185 28.2448 7.55857 28.4294 7.62992 28.6017C7.70127 28.7739 7.80585 28.9304 7.93769 29.0623C8.20395 29.3285 8.56508 29.4781 8.94163 29.4781C9.12807 29.4781 9.3127 29.4414 9.48495 29.37C9.65721 29.2987 9.81372 29.1941 9.94556 29.0623L18.5 20.5054L27.0568 29.0623C27.3231 29.3282 27.6841 29.4775 28.0604 29.4772C28.4367 29.477 28.7975 29.3273 29.0635 29.061C29.3294 28.7948 29.4787 28.4338 29.4784 28.0575C29.4782 27.6812 29.3285 27.3203 29.0622 27.0544L20.5054 18.5L29.0622 9.94561Z" fill="white"/>
</svg>