<svg width="43" height="22" viewBox="0 0 43 22" fill="none" xmlns="http://www.w3.org/2000/svg">
  <path d="M41.395 0.977051C41.047 0.66733 40.6337 0.421609 40.1786 0.253954C39.7236 0.0862983 39.2358 0 38.7432 0C38.2505 0 37.7627 0.0862983 37.3077 0.253954C36.8526 0.421609 36.4393 0.66733 36.0913 0.977051L21.4967 13.9401L6.90213 0.977051C6.19882 0.352362 5.24492 0.00141468 4.25029 0.00141468C3.25565 0.00141468 2.30174 0.352362 1.59843 0.977051C0.895111 1.60174 0.5 2.449 0.5 3.33244C0.5 4.21589 0.895111 5.06315 1.59843 5.68784L18.8637 21.023C19.2117 21.3327 19.625 21.5784 20.0801 21.746C20.5351 21.9137 21.0229 22 21.5155 22C22.0082 22 22.496 21.9137 22.951 21.746C23.406 21.5784 23.8194 21.3327 24.1674 21.023L41.4326 5.68784C42.862 4.41826 42.862 2.28003 41.395 0.977051Z" fill="white"/>
  </svg>
  