<svg width="26" height="26" viewBox="0 0 26 26" fill="none" xmlns="http://www.w3.org/2000/svg">
<path d="M14.2849 0.324219C15.6916 0.326544 16.4045 0.333987 17.0205 0.352325L17.2631 0.360256C17.5435 0.370212 17.8198 0.382719 18.1532 0.398337C19.4833 0.4598 20.3908 0.670212 21.1877 0.979587C22.0116 1.29731 22.7074 1.72646 23.4021 2.42126C24.0958 3.11606 24.5252 3.81397 24.844 4.63584C25.1522 5.43168 25.3626 6.34001 25.4252 7.67021C25.44 8.00354 25.452 8.28005 25.462 8.56034L25.4698 8.80297C25.488 9.41889 25.4965 10.1319 25.4991 11.5387L25.5 12.4707C25.5002 12.5845 25.5002 12.7021 25.5002 12.8233L25.5 13.1759L25.4993 14.1081C25.4968 15.5148 25.4895 16.2278 25.4711 16.8437L25.4631 17.0863C25.4533 17.3667 25.4408 17.6432 25.4252 17.9764C25.3637 19.3067 25.1522 20.2138 24.844 21.0107C24.5261 21.8348 24.0958 22.5306 23.4021 23.2255C22.7074 23.9192 22.0084 24.3482 21.1877 24.667C20.3908 24.9754 19.4833 25.1858 18.1532 25.2482C17.8198 25.2632 17.5435 25.2752 17.2631 25.285L17.0205 25.2928C16.4045 25.3112 15.6916 25.3195 14.2849 25.3223L13.3528 25.3232C13.2389 25.3232 13.1214 25.3232 13.0001 25.3232H12.6475L11.7154 25.3225C10.3086 25.3202 9.59566 25.3127 8.97973 25.2943L8.73712 25.2865C8.45681 25.2763 8.1803 25.264 7.84698 25.2482C6.51676 25.1869 5.61052 24.9754 4.81261 24.667C3.98968 24.3493 3.29281 23.9192 2.59801 23.2255C1.90323 22.5306 1.47511 21.8316 1.15636 21.0107C0.846989 20.2138 0.637608 19.3067 0.575114 17.9764C0.560264 17.6432 0.548152 17.3667 0.538327 17.0863L0.53047 16.8437C0.512189 16.2278 0.503845 15.5148 0.501145 14.1081L0.500977 11.5387C0.503302 10.1319 0.510745 9.41889 0.529083 8.80297L0.537014 8.56034C0.546989 8.28005 0.559477 8.00354 0.575114 7.67021C0.636558 6.33896 0.846989 5.43271 1.15636 4.63584C1.47406 3.81292 1.90323 3.11606 2.59801 2.42126C3.29281 1.72646 3.99073 1.29834 4.81261 0.979587C5.60949 0.670212 6.51573 0.460831 7.84698 0.398337C8.1803 0.383506 8.45681 0.371394 8.73712 0.361569L8.97973 0.353713C9.59566 0.335413 10.3086 0.327069 11.7154 0.324369L14.2849 0.324219ZM13.0001 6.57333C9.54648 6.57333 6.75011 9.37274 6.75011 12.8233C6.75011 16.2769 9.54952 19.0733 13.0001 19.0733C16.4538 19.0733 19.2501 16.2739 19.2501 12.8233C19.2501 9.36971 16.4506 6.57333 13.0001 6.57333ZM13.0001 9.07334C15.0713 9.07334 16.7501 10.7517 16.7501 12.8233C16.7501 14.8944 15.0718 16.5733 13.0001 16.5733C10.929 16.5733 9.2501 14.8951 9.2501 12.8233C9.2501 10.7522 10.9284 9.07334 13.0001 9.07334ZM19.5626 4.69833C18.7011 4.69833 18.0002 5.39823 18.0002 6.25977C18.0002 7.12134 18.7 7.82231 19.5626 7.82231C20.4242 7.82231 21.1251 7.12242 21.1251 6.25977C21.1251 5.39823 20.4231 4.69726 19.5626 4.69833Z" fill="white"/>
</svg>
