<svg width="25" height="24" viewBox="0 0 25 24" fill="none" xmlns="http://www.w3.org/2000/svg">
<path d="M5.67487 3.07339C5.6744 4.09127 5.05687 5.00725 4.11344 5.38939C3.17002 5.77154 2.0891 5.54354 1.38039 4.81292C0.671673 4.08227 0.47671 2.99492 0.887391 2.06357C1.29809 1.13222 2.23244 0.542855 3.24987 0.573399C4.6012 0.613955 5.67549 1.72144 5.67487 3.07339ZM5.74987 7.42339H0.74986V23.0734H5.74987V7.42339ZM13.6499 7.42339H8.67487V23.0734H13.5999V14.8609C13.5999 10.2859 19.5623 9.86085 19.5623 14.8609V23.0734H24.4999V13.1609C24.4999 5.44838 15.6749 5.73589 13.5999 9.52335L13.6499 7.42339Z" fill="white"/>
</svg>
