<svg width="72" height="61" viewBox="0 0 72 61" fill="none" xmlns="http://www.w3.org/2000/svg">
<path d="M37.0259 12.1942C32.3431 12.1942 28.5347 16.0023 28.5347 20.6854H32.2654C32.2654 18.0584 34.3985 15.9253 37.0255 15.9253C39.6526 15.9253 41.7856 18.0584 41.7856 20.6854C41.7856 23.3125 39.6526 25.4455 37.0255 25.4455H35.1601V32.9901H38.8909V28.9696C42.6769 28.1142 45.5164 24.7228 45.5164 20.6832C45.5164 16.0087 41.7083 12.1948 37.0252 12.1948L37.0259 12.1942Z" fill="white"/>
<path d="M35.185 38.9882H37.0503L38.9157 38.9303V35.1995L35.127 35.2575L35.185 38.9882Z" fill="white"/>
<path d="M37.0249 0C22.9183 0 11.439 11.4794 11.439 25.586C11.439 30.3681 12.7607 35.0012 15.2608 39.0356C13.7762 43.2189 10.9368 47.0323 6.81132 50.3659C6.11869 50.9316 5.92002 51.9057 6.33668 52.6976C6.66782 53.3185 7.31077 53.68 7.98131 53.68C8.16619 53.68 8.3566 53.6524 8.53872 53.5945L25.2944 48.3322C28.8983 50.1976 32.9301 51.1799 37.0274 51.1799C51.1368 51.1882 62.6239 39.709 62.6239 25.5862C62.6239 11.4796 51.1364 0 37.0249 0ZM37.0249 47.4575C33.2941 47.4575 29.6216 46.5027 26.401 44.6953C25.9567 44.4469 25.4187 44.3917 24.933 44.5407L14.6128 47.7831C16.6687 45.156 18.167 42.3303 19.0998 39.3279C19.2681 38.7898 19.177 38.2048 18.868 37.7385C16.4507 34.1346 15.1813 29.9318 15.1813 25.5802C15.1813 13.5293 24.9857 3.72275 37.0387 3.72275C49.0974 3.72275 58.9103 13.5272 58.9103 25.5802C58.8938 37.6445 49.0807 47.4575 37.0249 47.4575Z" fill="white"/>
</svg>
