<svg width="30" height="31" viewBox="0 0 30 31" fill="none" xmlns="http://www.w3.org/2000/svg">
<path d="M17.7975 20.0073C17.9037 20.1123 17.9037 20.2835 17.7975 20.3898C17.2162 20.9673 16.305 21.2485 15.0087 21.2485L14.9987 21.246L14.9888 21.2485C13.6938 21.2485 12.7812 20.9673 12.2 20.3885C12.0938 20.2835 12.0938 20.1123 12.2 20.0073C12.305 19.9023 12.4775 19.9023 12.5838 20.0073C13.0575 20.4785 13.8438 20.7085 14.9888 20.7085L14.9987 20.711L15.0087 20.7085C16.1525 20.7085 16.9387 20.4785 17.4137 20.0073C17.52 19.9023 17.6925 19.9023 17.7975 20.0073ZM13.4975 16.9848C13.4975 16.351 12.98 15.836 12.345 15.836C11.7088 15.836 11.1912 16.351 11.1912 16.9848C11.1912 17.6173 11.7088 18.1323 12.345 18.1323C12.98 18.1335 13.4975 17.6185 13.4975 16.9848ZM30 15.8223C30 24.106 23.2838 30.8223 15 30.8223C6.71625 30.8223 0 24.106 0 15.8223C0 7.53852 6.71625 0.822266 15 0.822266C23.2838 0.822266 30 7.53852 30 15.8223ZM23.75 15.661C23.75 14.5973 22.8813 13.7323 21.8125 13.7323C21.2913 13.7323 20.8187 13.941 20.47 14.276C19.15 13.4073 17.3638 12.8548 15.3875 12.7835L16.4688 9.37852L19.3975 10.0648L19.3938 10.1073C19.3938 10.9773 20.105 11.6848 20.9788 11.6848C21.8525 11.6848 22.5625 10.9773 22.5625 10.1073C22.5625 9.23727 21.8525 8.52977 20.9788 8.52977C20.3075 8.52977 19.7362 8.94851 19.505 9.53477L16.3488 8.79477C16.2113 8.76102 16.07 8.84101 16.0275 8.97602L14.8213 12.7735C12.7513 12.7985 10.8775 13.356 9.49875 14.2498C9.1525 13.931 8.69375 13.731 8.18625 13.731C7.11875 13.7323 6.25 14.5973 6.25 15.661C6.25 16.3685 6.63875 16.981 7.21 17.3173C7.1725 17.5223 7.1475 17.731 7.1475 17.9423C7.1475 20.7935 10.6537 23.1135 14.9637 23.1135C19.2738 23.1135 22.78 20.7935 22.78 17.9423C22.78 17.7423 22.7588 17.546 22.725 17.3523C23.3325 17.026 23.75 16.3948 23.75 15.661ZM17.66 15.8373C17.0238 15.8373 16.5075 16.3523 16.5075 16.986C16.5075 17.6185 17.025 18.1335 17.66 18.1335C18.295 18.1335 18.8125 17.6185 18.8125 16.986C18.8125 16.3523 18.2962 15.8373 17.66 15.8373Z" fill="white"/>
</svg>
