<svg width="24" height="26" viewBox="0 0 24 26" fill="none" xmlns="http://www.w3.org/2000/svg">
<path d="M17.0001 8.13093V17.1992C17.0001 21.6867 13.3624 25.3242 8.87499 25.3242C4.38769 25.3242 0.75 21.6867 0.75 17.1992C0.75 12.7118 4.38769 9.07421 8.87499 9.07421C9.52037 9.07421 10.1481 9.14945 10.75 9.29163V13.2452C10.1818 12.9752 9.546 12.8242 8.87499 12.8242C6.45876 12.8242 4.5 14.783 4.5 17.1992C4.5 19.6155 6.45876 21.5742 8.87499 21.5742C11.2913 21.5742 13.25 19.6155 13.25 17.1992V0.324219H17.0001C17.0001 3.77598 19.7983 6.57421 23.25 6.57421V10.3242C20.8851 10.3242 18.7119 9.50332 17.0001 8.13093Z" fill="white"/>
</svg>
