<svg width="26" height="21" viewBox="0 0 26 21" fill="none" xmlns="http://www.w3.org/2000/svg">
<path d="M13.3049 0.820312C13.9725 0.823987 15.6429 0.84015 17.4175 0.911231L18.0468 0.938662C19.8337 1.02326 21.619 1.16779 22.5046 1.41469C23.6857 1.74651 24.6142 2.7147 24.9279 3.94196C25.4275 5.89084 25.49 9.69457 25.4977 10.6151L25.4988 10.8058V10.8192C25.4988 10.8192 25.4988 10.8238 25.4988 10.8327L25.4977 11.0234C25.49 11.9439 25.4275 15.7477 24.9279 17.6966C24.6097 18.9283 23.6814 19.8966 22.5046 20.2237C21.619 20.4707 19.8337 20.6152 18.0468 20.6998L17.4175 20.7272C15.6429 20.7982 13.9725 20.8144 13.3049 20.8181L13.0119 20.8192H12.9989C12.9989 20.8192 12.9945 20.8192 12.9859 20.8192L12.6931 20.8181C11.2801 20.8104 5.37215 20.7465 3.49314 20.2237C2.312 19.8919 1.38365 18.9238 1.06983 17.6966C0.570238 15.7477 0.5078 11.9439 0.5 11.0234V10.6151C0.5078 9.69457 0.570238 5.89084 1.06983 3.94196C1.388 2.71014 2.31635 1.74197 3.49314 1.41469C5.37215 0.891862 11.2801 0.828094 12.6931 0.820312H13.3049ZM10.4989 6.44424V15.1942L17.9988 10.8192L10.4989 6.44424Z" fill="white"/>
</svg>
